<?xml version="1.0" encoding="utf-8"?>
<!-- Generator: Adobe Illustrator 26.1.0, SVG Export Plug-In . SVG Version: 6.00 Build 0)  -->
<svg version="1.1" xmlns="http://www.w3.org/2000/svg" xmlns:xlink="http://www.w3.org/1999/xlink" x="0px" y="0px"
	 viewBox="0 0 659 616" style="enable-background:new 0 0 659 616;" xml:space="preserve">
<style type="text/css">
	.st0{fill:#919191;}
	.st1{fill:#282828;}
	.st2{fill:#FF0000;}
	.st3{fill:none;stroke:#FF0000;stroke-width:4;stroke-miterlimit:10;}
	.st4{font-family:'OpenSans-Bold';}
	.st5{font-size:27.8975px;}
</style>
<g id="Layer_1">
	<g>
		<path class="st0" d="M57,52h-5v1h5V52L57,52z M47,52h-5v1h5V52L47,52z M37,52h-5v1h5V52L37,52z M27,52h-5v1h5V52L27,52z M21,55h-1
			v5h1V55L21,55z M21,65h-1v5h1V65L21,65z M21,75h-1v5h1V75L21,75z M21,85h-1v4h1l0,0l0,0l0,0l0,0l0,0v-1l0,0V85L21,85z M31,88h-5v1
			h5V88L31,88z M41,88h-5v1h5V88L41,88z M51,88h-5v1h5V88L51,88z M57,85h-1v3l0,0v1h1V85L57,85z M57,75h-1v5h1V75L57,75z M57,65h-1
			v5h1V65L57,65z M57,55h-1v5h1V55L57,55z"/>
	</g>
	<g>
		<path class="st0" d="M57,88h-5v1h5V88L57,88z M47,88h-5v1h5V88L47,88z M37,88h-5v1h5V88L37,88z M27,88h-5v1h5V88L27,88z M21,91h-1
			v5h1V91L21,91z M21,101h-1v5h1V101L21,101z M21,111h-1v5h1V111L21,111z M21,121h-1v4h1l0,0l0,0l0,0l0,0l0,0v-1l0,0V121L21,121z
			 M31,124h-5v1h5V124L31,124z M41,124h-5v1h5V124L41,124z M51,124h-5v1h5V124L51,124z M57,121h-1v3l0,0v1h1V121L57,121z M57,111h-1
			v5h1V111L57,111z M57,101h-1v5h1V101L57,101z M57,91h-1v5h1V91L57,91z"/>
	</g>
	<g>
		<path class="st0" d="M57,124h-5v1h5V124L57,124z M47,124h-5v1h5V124L47,124z M37,124h-5v1h5V124L37,124z M27,124h-5v1h5V124
			L27,124z M21,127h-1v5h1V127L21,127z M21,137h-1v5h1V137L21,137z M21,147h-1v5h1V147L21,147z M21,157h-1v4h1l0,0l0,0l0,0l0,0l0,0
			v-1l0,0V157L21,157z M31,160h-5v1h5V160L31,160z M41,160h-5v1h5V160L41,160z M51,160h-5v1h5V160L51,160z M57,157h-1v3l0,0v1h1V157
			L57,157z M57,147h-1v5h1V147L57,147z M57,137h-1v5h1V137L57,137z M57,127h-1v5h1V127L57,127z"/>
	</g>
	<g>
		<path class="st0" d="M57,160h-5v1h5V160L57,160z M47,160h-5v1h5V160L47,160z M37,160h-5v1h5V160L37,160z M27,160h-5v1h5V160
			L27,160z M21,163h-1v5h1V163L21,163z M21,173h-1v5h1V173L21,173z M21,183h-1v5h1V183L21,183z M21,193h-1v4h1l0,0l0,0l0,0l0,0l0,0
			v-1l0,0V193L21,193z M31,196h-5v1h5V196L31,196z M41,196h-5v1h5V196L41,196z M51,196h-5v1h5V196L51,196z M57,193h-1v3l0,0v1h1V193
			L57,193z M57,183h-1v5h1V183L57,183z M57,173h-1v5h1V173L57,173z M57,163h-1v5h1V163L57,163z"/>
	</g>
	<g>
		<path class="st0" d="M57,196h-5v1h5V196L57,196z M47,196h-5v1h5V196L47,196z M37,196h-5v1h5V196L37,196z M27,196h-5v1h5V196
			L27,196z M21,199h-1v5h1V199L21,199z M21,209h-1v5h1V209L21,209z M21,219h-1v5h1V219L21,219z M21,229h-1v4h1l0,0l0,0l0,0l0,0l0,0
			v-1l0,0V229L21,229z M31,232h-5v1h5V232L31,232z M41,232h-5v1h5V232L41,232z M51,232h-5v1h5V232L51,232z M57,229h-1v3l0,0v1h1V229
			L57,229z M57,219h-1v5h1V219L57,219z M57,209h-1v5h1V209L57,209z M57,199h-1v5h1V199L57,199z"/>
	</g>
	<g>
		<path class="st0" d="M273,52h-5v1h5V52L273,52z M263,52h-5v1h5V52L263,52z M253,52h-5v1h5V52L253,52z M243,52h-5v1h5V52L243,52z
			 M237,55h-1v5h1V55L237,55z M237,65h-1v5h1V65L237,65z M237,75h-1v5h1V75L237,75z M237,85h-1v4h1l0,0l0,0l0,0l0,0l0,0v-1l0,0V85
			L237,85z M247,88h-5v1h5V88L247,88z M257,88h-5v1h5V88L257,88z M267,88h-5v1h5V88L267,88z M273,85h-1v3l0,0v1h1V85L273,85z
			 M273,75h-1v5h1V75L273,75z M273,65h-1v5h1V65L273,65z M273,55h-1v5h1V55L273,55z"/>
	</g>
	<g>
		<path class="st0" d="M273,16h-5v1h5V16L273,16z M263,16h-5v1h5V16L263,16z M253,16h-5v1h5V16L253,16z M243,16h-5v1h5V16L243,16z
			 M237,19h-1v5h1V19L237,19z M237,29h-1v5h1V29L237,29z M237,39h-1v5h1V39L237,39z M237,49h-1v4h1l0,0l0,0l0,0l0,0l0,0v-1l0,0V49
			L237,49z M247,52h-5v1h5V52L247,52z M257,52h-5v1h5V52L257,52z M267,52h-5v1h5V52L267,52z M273,49h-1v3l0,0v1h1V49L273,49z
			 M273,39h-1v5h1V39L273,39z M273,29h-1v5h1V29L273,29z M273,19h-1v5h1V19L273,19z"/>
	</g>
	<g>
		<g>
			<path class="st0" d="M93,16h-5v1h5V16L93,16z M83,16h-5v1h5V16L83,16z M73,16h-5v1h5V16L73,16z M63,16h-5v1h5V16L63,16z M57,19
				h-1v5h1V19L57,19z M57,29h-1v5h1V29L57,29z M57,39h-1v5h1V39L57,39z M57,49h-1v4h1l0,0l0,0l0,0l0,0l0,0v-1l0,0V49L57,49z M67,52
				h-5v1h5V52L67,52z M77,52h-5v1h5V52L77,52z M87,52h-5v1h5V52L87,52z M93,49h-1v3l0,0v1h1V49L93,49z M93,39h-1v5h1V39L93,39z
				 M93,29h-1v5h1V29L93,29z M93,19h-1v5h1V19L93,19z"/>
		</g>
	</g>
	<g>
		<g>
			<path class="st0" d="M129,16h-5v1h5V16L129,16z M119,16h-5v1h5V16L119,16z M109,16h-5v1h5V16L109,16z M99,16h-5v1h5V16L99,16z
				 M93,19h-1v5h1V19L93,19z M93,29h-1v5h1V29L93,29z M93,39h-1v5h1V39L93,39z M93,49h-1v4h1l0,0l0,0l0,0l0,0l0,0v-1l0,0V49L93,49z
				 M103,52h-5v1h5V52L103,52z M113,52h-5v1h5V52L113,52z M123,52h-5v1h5V52L123,52z M129,49h-1v3l0,0v1h1V49L129,49z M129,39h-1v5
				h1V39L129,39z M129,29h-1v5h1V29L129,29z M129,19h-1v5h1V19L129,19z"/>
		</g>
	</g>
	<g>
		<g>
			<path class="st0" d="M165,16h-5v1h5V16L165,16z M155,16h-5v1h5V16L155,16z M145,16h-5v1h5V16L145,16z M135,16h-5v1h5V16L135,16z
				 M129,19h-1v5h1V19L129,19z M129,29h-1v5h1V29L129,29z M129,39h-1v5h1V39L129,39z M129,49h-1v4h1l0,0l0,0l0,0l0,0l0,0v-1l0,0V49
				L129,49z M139,52h-5v1h5V52L139,52z M149,52h-5v1h5V52L149,52z M159,52h-5v1h5V52L159,52z M165,49h-1v3l0,0v1h1V49L165,49z
				 M165,39h-1v5h1V39L165,39z M165,29h-1v5h1V29L165,29z M165,19h-1v5h1V19L165,19z"/>
		</g>
	</g>
	<g>
		<g>
			<path class="st0" d="M201,16h-5v1h5V16L201,16z M191,16h-5v1h5V16L191,16z M181,16h-5v1h5V16L181,16z M171,16h-5v1h5V16L171,16z
				 M165,19h-1v5h1V19L165,19z M165,29h-1v5h1V29L165,29z M165,39h-1v5h1V39L165,39z M165,49h-1v4h1l0,0l0,0l0,0l0,0l0,0v-1l0,0V49
				L165,49z M175,52h-5v1h5V52L175,52z M185,52h-5v1h5V52L185,52z M195,52h-5v1h5V52L195,52z M201,49h-1v3l0,0v1h1V49L201,49z
				 M201,39h-1v5h1V39L201,39z M201,29h-1v5h1V29L201,29z M201,19h-1v5h1V19L201,19z"/>
		</g>
	</g>
	<g>
		<g>
			<path class="st0" d="M237,16h-5v1h5V16L237,16z M227,16h-5v1h5V16L227,16z M217,16h-5v1h5V16L217,16z M207,16h-5v1h5V16L207,16z
				 M201,19h-1v5h1V19L201,19z M201,29h-1v5h1V29L201,29z M201,39h-1v5h1V39L201,39z M201,49h-1v4h1l0,0l0,0l0,0l0,0l0,0v-1l0,0V49
				L201,49z M211,52h-5v1h5V52L211,52z M221,52h-5v1h5V52L221,52z M231,52h-5v1h5V52L231,52z M237,49h-1v3l0,0v1h1V49L237,49z
				 M237,39h-1v5h1V39L237,39z M237,29h-1v5h1V29L237,29z M237,19h-1v5h1V19L237,19z"/>
		</g>
	</g>
	<g>
		<g>
			<path class="st0" d="M57,16h-5v1h5V16L57,16z M47,16h-5v1h5V16L47,16z M37,16h-5v1h5V16L37,16z M27,16h-5v1h5V16L27,16z M21,19
				h-1v5h1V19L21,19z M21,29h-1v5h1V29L21,29z M21,39h-1v5h1V39L21,39z M21,49h-1v4h1l0,0l0,0l0,0l0,0l0,0v-1l0,0V49L21,49z M31,52
				h-5v1h5V52L31,52z M41,52h-5v1h5V52L41,52z M51,52h-5v1h5V52L51,52z M57,49h-1v3l0,0v1h1V49L57,49z M57,39h-1v5h1V39L57,39z
				 M57,29h-1v5h1V29L57,29z M57,19h-1v5h1V19L57,19z"/>
		</g>
	</g>
	<g>
		<path class="st0" d="M273,88h-5v1h5V88L273,88z M263,88h-5v1h5V88L263,88z M253,88h-5v1h5V88L253,88z M243,88h-5v1h5V88L243,88z
			 M237,91h-1v5h1V91L237,91z M237,101h-1v5h1V101L237,101z M237,111h-1v5h1V111L237,111z M237,121h-1v4h1l0,0l0,0l0,0l0,0l0,0v-1
			l0,0V121L237,121z M247,124h-5v1h5V124L247,124z M257,124h-5v1h5V124L257,124z M267,124h-5v1h5V124L267,124z M273,121h-1v3l0,0v1
			h1V121L273,121z M273,111h-1v5h1V111L273,111z M273,101h-1v5h1V101L273,101z M273,91h-1v5h1V91L273,91z"/>
	</g>
	<g>
		<path class="st0" d="M273,124h-5v1h5V124L273,124z M263,124h-5v1h5V124L263,124z M253,124h-5v1h5V124L253,124z M243,124h-5v1h5
			V124L243,124z M237,127h-1v5h1V127L237,127z M237,137h-1v5h1V137L237,137z M237,147h-1v5h1V147L237,147z M237,157h-1v4h1l0,0l0,0
			l0,0l0,0l0,0v-1l0,0V157L237,157z M247,160h-5v1h5V160L247,160z M257,160h-5v1h5V160L257,160z M267,160h-5v1h5V160L267,160z
			 M273,157h-1v3l0,0v1h1V157L273,157z M273,147h-1v5h1V147L273,147z M273,137h-1v5h1V137L273,137z M273,127h-1v5h1V127L273,127z"/>
	</g>
	<g>
		<path class="st0" d="M273,160h-5v1h5V160L273,160z M263,160h-5v1h5V160L263,160z M253,160h-5v1h5V160L253,160z M243,160h-5v1h5
			V160L243,160z M237,163h-1v5h1V163L237,163z M237,173h-1v5h1V173L237,173z M237,183h-1v5h1V183L237,183z M237,193h-1v4h1l0,0l0,0
			l0,0l0,0l0,0v-1l0,0V193L237,193z M247,196h-5v1h5V196L247,196z M257,196h-5v1h5V196L257,196z M267,196h-5v1h5V196L267,196z
			 M273,193h-1v3l0,0v1h1V193L273,193z M273,183h-1v5h1V183L273,183z M273,173h-1v5h1V173L273,173z M273,163h-1v5h1V163L273,163z"/>
	</g>
	<g>
		<path class="st0" d="M273,196h-5v1h5V196L273,196z M263,196h-5v1h5V196L263,196z M253,196h-5v1h5V196L253,196z M243,196h-5v1h5
			V196L243,196z M237,199h-1v5h1V199L237,199z M237,209h-1v5h1V209L237,209z M237,219h-1v5h1V219L237,219z M237,229h-1v4h1l0,0l0,0
			l0,0l0,0l0,0v-1l0,0V229L237,229z M247,232h-5v1h5V232L247,232z M257,232h-5v1h5V232L257,232z M267,232h-5v1h5V232L267,232z
			 M273,229h-1v3l0,0v1h1V229L273,229z M273,219h-1v5h1V219L273,219z M273,209h-1v5h1V209L273,209z M273,199h-1v5h1V199L273,199z"/>
	</g>
	<g>
		<g>
			<path class="st0" d="M93,232h-5v1h5V232L93,232z M83,232h-5v1h5V232L83,232z M73,232h-5v1h5V232L73,232z M63,232h-5v1h5V232
				L63,232z M57,235h-1v5h1V235L57,235z M57,245h-1v5h1V245L57,245z M57,255h-1v5h1V255L57,255z M57,265h-1v4h1l0,0l0,0l0,0l0,0l0,0
				v-1l0,0V265L57,265z M67,268h-5v1h5V268L67,268z M77,268h-5v1h5V268L77,268z M87,268h-5v1h5V268L87,268z M93,265h-1v3l0,0v1h1
				V265L93,265z M93,255h-1v5h1V255L93,255z M93,245h-1v5h1V245L93,245z M93,235h-1v5h1V235L93,235z"/>
		</g>
	</g>
	<g>
		<g>
			<path class="st0" d="M57,232h-5v1h5V232L57,232z M47,232h-5v1h5V232L47,232z M37,232h-5v1h5V232L37,232z M27,232h-5v1h5V232
				L27,232z M21,235h-1v5h1V235L21,235z M21,245h-1v5h1V245L21,245z M21,255h-1v5h1V255L21,255z M21,265h-1v4h1l0,0l0,0l0,0l0,0l0,0
				v-1l0,0V265L21,265z M31,268h-5v1h5V268L31,268z M41,268h-5v1h5V268L41,268z M51,268h-5v1h5V268L51,268z M57,265h-1v3l0,0v1h1
				V265L57,265z M57,255h-1v5h1V255L57,255z M57,245h-1v5h1V245L57,245z M57,235h-1v5h1V235L57,235z"/>
		</g>
	</g>
	<g>
		<g>
			<path class="st0" d="M273,232h-5v1h5V232L273,232z M263,232h-5v1h5V232L263,232z M253,232h-5v1h5V232L253,232z M243,232h-5v1h5
				V232L243,232z M237,235h-1v5h1V235L237,235z M237,245h-1v5h1V245L237,245z M237,255h-1v5h1V255L237,255z M237,265h-1v4h1l0,0l0,0
				l0,0l0,0l0,0v-1l0,0V265L237,265z M247,268h-5v1h5V268L247,268z M257,268h-5v1h5V268L257,268z M267,268h-5v1h5V268L267,268z
				 M273,265h-1v3l0,0v1h1V265L273,265z M273,255h-1v5h1V255L273,255z M273,245h-1v5h1V245L273,245z M273,235h-1v5h1V235L273,235z"
				/>
		</g>
	</g>
	<g>
		<g>
			<path class="st0" d="M129,232h-5v1h5V232L129,232z M119,232h-5v1h5V232L119,232z M109,232h-5v1h5V232L109,232z M99,232h-5v1h5
				V232L99,232z M93,235h-1v5h1V235L93,235z M93,245h-1v5h1V245L93,245z M93,255h-1v5h1V255L93,255z M93,265h-1v4h1l0,0l0,0l0,0l0,0
				l0,0v-1l0,0V265L93,265z M103,268h-5v1h5V268L103,268z M113,268h-5v1h5V268L113,268z M123,268h-5v1h5V268L123,268z M129,265h-1v3
				l0,0v1h1V265L129,265z M129,255h-1v5h1V255L129,255z M129,245h-1v5h1V245L129,245z M129,235h-1v5h1V235L129,235z"/>
		</g>
	</g>
	<g>
		<g>
			<path class="st0" d="M165,232h-5v1h5V232L165,232z M155,232h-5v1h5V232L155,232z M145,232h-5v1h5V232L145,232z M135,232h-5v1h5
				V232L135,232z M129,235h-1v5h1V235L129,235z M129,245h-1v5h1V245L129,245z M129,255h-1v5h1V255L129,255z M129,265h-1v4h1l0,0l0,0
				l0,0l0,0l0,0v-1l0,0V265L129,265z M139,268h-5v1h5V268L139,268z M149,268h-5v1h5V268L149,268z M159,268h-5v1h5V268L159,268z
				 M165,265h-1v3l0,0v1h1V265L165,265z M165,255h-1v5h1V255L165,255z M165,245h-1v5h1V245L165,245z M165,235h-1v5h1V235L165,235z"
				/>
		</g>
	</g>
	<g>
		<g>
			<path class="st0" d="M201,232h-5v1h5V232L201,232z M191,232h-5v1h5V232L191,232z M181,232h-5v1h5V232L181,232z M171,232h-5v1h5
				V232L171,232z M165,235h-1v5h1V235L165,235z M165,245h-1v5h1V245L165,245z M165,255h-1v5h1V255L165,255z M165,265h-1v4h1l0,0l0,0
				l0,0l0,0l0,0v-1l0,0V265L165,265z M175,268h-5v1h5V268L175,268z M185,268h-5v1h5V268L185,268z M195,268h-5v1h5V268L195,268z
				 M201,265h-1v3l0,0v1h1V265L201,265z M201,255h-1v5h1V255L201,255z M201,245h-1v5h1V245L201,245z M201,235h-1v5h1V235L201,235z"
				/>
		</g>
	</g>
	<g>
		<g>
			<path class="st0" d="M237,232h-5v1h5V232L237,232z M227,232h-5v1h5V232L227,232z M217,232h-5v1h5V232L217,232z M207,232h-5v1h5
				V232L207,232z M201,235h-1v5h1V235L201,235z M201,245h-1v5h1V245L201,245z M201,255h-1v5h1V255L201,255z M201,265h-1v4h1l0,0l0,0
				l0,0l0,0l0,0v-1l0,0V265L201,265z M211,268h-5v1h5V268L211,268z M221,268h-5v1h5V268L221,268z M231,268h-5v1h5V268L231,268z
				 M237,265h-1v3l0,0v1h1V265L237,265z M237,255h-1v5h1V255L237,255z M237,245h-1v5h1V245L237,245z M237,235h-1v5h1V235L237,235z"
				/>
		</g>
	</g>
	<g>
		<g>
			<path class="st1" d="M92,53v35H57V53H92 M93,52H56v37h37V52L93,52z"/>
		</g>
	</g>
	<g>
		<g>
			<path class="st1" d="M128,53v35H93V53H128 M129,52H92v37h37V52L129,52z"/>
		</g>
	</g>
	<g>
		<g>
			<path class="st1" d="M164,53v35h-35V53H164 M165,52h-37v37h37V52L165,52z"/>
		</g>
	</g>
	<g>
		<g>
			<path class="st1" d="M200,53v35h-35V53H200 M201,52h-37v37h37V52L201,52z"/>
		</g>
	</g>
	<g>
		<g>
			<path class="st1" d="M236,53v35h-35V53H236 M237,52h-37v37h37V52L237,52z"/>
		</g>
	</g>
	<g>
		<g>
			<path class="st1" d="M92,89v35H57V89H92 M93,88H56v37h37V88L93,88z"/>
		</g>
	</g>
	<g>
		<g>
			<path class="st1" d="M128,89v35H93V89H128 M129,88H92v37h37V88L129,88z"/>
		</g>
	</g>
	<g>
		<g>
			<path class="st1" d="M164,89v35h-35V89H164 M165,88h-37v37h37V88L165,88z"/>
		</g>
	</g>
	<g>
		<g>
			<path class="st1" d="M200,89v35h-35V89H200 M201,88h-37v37h37V88L201,88z"/>
		</g>
	</g>
	<g>
		<g>
			<path class="st1" d="M236,89v35h-35V89H236 M237,88h-37v37h37V88L237,88z"/>
		</g>
	</g>
	<g>
		<g>
			<path class="st1" d="M92,125v35H57v-35H92 M93,124H56v37h37V124L93,124z"/>
		</g>
	</g>
	<g>
		<g>
			<path class="st1" d="M128,125v35H93v-35H128 M129,124H92v37h37V124L129,124z"/>
		</g>
	</g>
	<g>
		<g>
			<path class="st1" d="M164,125v35h-35v-35H164 M165,124h-37v37h37V124L165,124z"/>
		</g>
	</g>
	<g>
		<g>
			<path class="st1" d="M200,125v35h-35v-35H200 M201,124h-37v37h37V124L201,124z"/>
		</g>
	</g>
	<g>
		<g>
			<path class="st1" d="M236,125v35h-35v-35H236 M237,124h-37v37h37V124L237,124z"/>
		</g>
	</g>
	<g>
		<g>
			<path class="st1" d="M92,161v35H57v-35H92 M93,160H56v37h37V160L93,160z"/>
		</g>
	</g>
	<g>
		<g>
			<path class="st1" d="M128,161v35H93v-35H128 M129,160H92v37h37V160L129,160z"/>
		</g>
	</g>
	<g>
		<g>
			<path class="st1" d="M164,161v35h-35v-35H164 M165,160h-37v37h37V160L165,160z"/>
		</g>
	</g>
	<g>
		<g>
			<path class="st1" d="M200,161v35h-35v-35H200 M201,160h-37v37h37V160L201,160z"/>
		</g>
	</g>
	<g>
		<g>
			<path class="st1" d="M236,161v35h-35v-35H236 M237,160h-37v37h37V160L237,160z"/>
		</g>
	</g>
	<g>
		<g>
			<path class="st1" d="M92,197v35H57v-35H92 M93,196H56v37h37V196L93,196z"/>
		</g>
	</g>
	<g>
		<g>
			<path class="st1" d="M128,197v35H93v-35H128 M129,196H92v37h37V196L129,196z"/>
		</g>
	</g>
	<g>
		<g>
			<path class="st1" d="M164,197v35h-35v-35H164 M165,196h-37v37h37V196L165,196z"/>
		</g>
	</g>
	<g>
		<g>
			<path class="st1" d="M200,197v35h-35v-35H200 M201,196h-37v37h37V196L201,196z"/>
		</g>
	</g>
	<g>
		<g>
			<path class="st1" d="M236,197v35h-35v-35H236 M237,196h-37v37h37V196L237,196z"/>
		</g>
	</g>
	<g>
		<path class="st1" d="M493,53v35h-35V53H493 M494,52h-37v37h37V52L494,52z"/>
	</g>
	<g>
		<path class="st1" d="M529,53v35h-35V53H529 M530,52h-37v37h37V52L530,52z"/>
	</g>
	<g>
		<path class="st1" d="M565,53v35h-35V53H565 M566,52h-37v37h37V52L566,52z"/>
	</g>
	<g>
		<path class="st1" d="M601,53v35h-35V53H601 M602,52h-37v37h37V52L602,52z"/>
	</g>
	<g>
		<path class="st1" d="M637,53v35h-35V53H637 M638,52h-37v37h37V52L638,52z"/>
	</g>
	<g>
		<path class="st1" d="M493,89v35h-35V89H493 M494,88h-37v37h37V88L494,88z"/>
	</g>
	<g>
		<path class="st1" d="M529,89v35h-35V89H529 M530,88h-37v37h37V88L530,88z"/>
	</g>
	<g>
		<path class="st1" d="M565,89v35h-35V89H565 M566,88h-37v37h37V88L566,88z"/>
	</g>
	<g>
		<path class="st1" d="M601,89v35h-35V89H601 M602,88h-37v37h37V88L602,88z"/>
	</g>
	<g>
		<path class="st1" d="M637,89v35h-35V89H637 M638,88h-37v37h37V88L638,88z"/>
	</g>
	<g>
		<path class="st1" d="M493,125v35h-35v-35H493 M494,124h-37v37h37V124L494,124z"/>
	</g>
	<g>
		<path class="st1" d="M529,125v35h-35v-35H529 M530,124h-37v37h37V124L530,124z"/>
	</g>
	<g>
		<path class="st1" d="M565,125v35h-35v-35H565 M566,124h-37v37h37V124L566,124z"/>
	</g>
	<g>
		<path class="st1" d="M601,125v35h-35v-35H601 M602,124h-37v37h37V124L602,124z"/>
	</g>
	<g>
		<path class="st1" d="M637,125v35h-35v-35H637 M638,124h-37v37h37V124L638,124z"/>
	</g>
	<g>
		<path class="st1" d="M493,161v35h-35v-35H493 M494,160h-37v37h37V160L494,160z"/>
	</g>
	<g>
		<path class="st1" d="M529,161v35h-35v-35H529 M530,160h-37v37h37V160L530,160z"/>
	</g>
	<g>
		<path class="st1" d="M565,161v35h-35v-35H565 M566,160h-37v37h37V160L566,160z"/>
	</g>
	<g>
		<path class="st1" d="M601,161v35h-35v-35H601 M602,160h-37v37h37V160L602,160z"/>
	</g>
	<g>
		<path class="st1" d="M637,161v35h-35v-35H637 M638,160h-37v37h37V160L638,160z"/>
	</g>
	<g>
		<path class="st1" d="M493,197v35h-35v-35H493 M494,196h-37v37h37V196L494,196z"/>
	</g>
	<g>
		<path class="st1" d="M529,197v35h-35v-35H529 M530,196h-37v37h37V196L530,196z"/>
	</g>
	<g>
		<path class="st1" d="M565,197v35h-35v-35H565 M566,196h-37v37h37V196L566,196z"/>
	</g>
	<g>
		<path class="st1" d="M601,197v35h-35v-35H601 M602,196h-37v37h37V196L602,196z"/>
	</g>
	<g>
		<path class="st1" d="M637,197v35h-35v-35H637 M638,196h-37v37h37V196L638,196z"/>
	</g>
	<g>
		<path class="st1" d="M92,381v35H57v-35H92 M93,380H56v37h37V380L93,380z"/>
	</g>
	<g>
		<path class="st1" d="M128,381v35H93v-35H128 M129,380H92v37h37V380L129,380z"/>
	</g>
	<g>
		<path class="st1" d="M164,381v35h-35v-35H164 M165,380h-37v37h37V380L165,380z"/>
	</g>
	<g>
		<path class="st1" d="M200,381v35h-35v-35H200 M201,380h-37v37h37V380L201,380z"/>
	</g>
	<g>
		<path class="st1" d="M236,381v35h-35v-35H236 M237,380h-37v37h37V380L237,380z"/>
	</g>
	<g>
		<path class="st1" d="M92,417v35H57v-35H92 M93,416H56v37h37V416L93,416z"/>
	</g>
	<g>
		<path class="st1" d="M128,417v35H93v-35H128 M129,416H92v37h37V416L129,416z"/>
	</g>
	<g>
		<path class="st1" d="M164,417v35h-35v-35H164 M165,416h-37v37h37V416L165,416z"/>
	</g>
	<g>
		<path class="st1" d="M200,417v35h-35v-35H200 M201,416h-37v37h37V416L201,416z"/>
	</g>
	<g>
		<path class="st1" d="M236,417v35h-35v-35H236 M237,416h-37v37h37V416L237,416z"/>
	</g>
	<g>
		<path class="st1" d="M92,453v35H57v-35H92 M93,452H56v37h37V452L93,452z"/>
	</g>
	<g>
		<path class="st1" d="M128,453v35H93v-35H128 M129,452H92v37h37V452L129,452z"/>
	</g>
	<g>
		<path class="st1" d="M164,453v35h-35v-35H164 M165,452h-37v37h37V452L165,452z"/>
	</g>
	<g>
		<path class="st1" d="M200,453v35h-35v-35H200 M201,452h-37v37h37V452L201,452z"/>
	</g>
	<g>
		<path class="st1" d="M236,453v35h-35v-35H236 M237,452h-37v37h37V452L237,452z"/>
	</g>
	<g>
		<path class="st1" d="M92,489v35H57v-35H92 M93,488H56v37h37V488L93,488z"/>
	</g>
	<g>
		<path class="st1" d="M128,489v35H93v-35H128 M129,488H92v37h37V488L129,488z"/>
	</g>
	<g>
		<path class="st1" d="M164,489v35h-35v-35H164 M165,488h-37v37h37V488L165,488z"/>
	</g>
	<g>
		<path class="st1" d="M200,489v35h-35v-35H200 M201,488h-37v37h37V488L201,488z"/>
	</g>
	<g>
		<path class="st1" d="M236,489v35h-35v-35H236 M237,488h-37v37h37V488L237,488z"/>
	</g>
	<g>
		<path class="st1" d="M92,525v35H57v-35H92 M93,524H56v37h37V524L93,524z"/>
	</g>
	<g>
		<path class="st1" d="M128,525v35H93v-35H128 M129,524H92v37h37V524L129,524z"/>
	</g>
	<g>
		<path class="st1" d="M164,525v35h-35v-35H164 M165,524h-37v37h37V524L165,524z"/>
	</g>
	<g>
		<path class="st1" d="M200,525v35h-35v-35H200 M201,524h-37v37h37V524L201,524z"/>
	</g>
	<g>
		<path class="st1" d="M236,525v35h-35v-35H236 M237,524h-37v37h37V524L237,524z"/>
	</g>
	<g>
		<path class="st1" d="M529,417v35h-35v-35H529 M530,416h-37v37h37V416L530,416z"/>
	</g>
	<g>
		<path class="st1" d="M565,417v35h-35v-35H565 M566,416h-37v37h37V416L566,416z"/>
	</g>
	<g>
		<path class="st1" d="M601,417v35h-35v-35H601 M602,416h-37v37h37V416L602,416z"/>
	</g>
	<g>
		<path class="st1" d="M529,453v35h-35v-35H529 M530,452h-37v37h37V452L530,452z"/>
	</g>
	<g>
		<path class="st1" d="M565,453v35h-35v-35H565 M566,452h-37v37h37V452L566,452z"/>
	</g>
	<g>
		<path class="st1" d="M601,453v35h-35v-35H601 M602,452h-37v37h37V452L602,452z"/>
	</g>
	<g>
		<path class="st1" d="M529,489v35h-35v-35H529 M530,488h-37v37h37V488L530,488z"/>
	</g>
	<g>
		<path class="st1" d="M565,489v35h-35v-35H565 M566,488h-37v37h37V488L566,488z"/>
	</g>
	<g>
		<path class="st1" d="M601,489v35h-35v-35H601 M602,488h-37v37h37V488L602,488z"/>
	</g>
</g>
<g id="Layer_2">
	<g>
		<path class="st2" d="M269,20v101H168V20H269 M273,16H164v109h109V16L273,16z"/>
	</g>
	<g>
		<path class="st2" d="M233,384v101H132V384H233 M237,380H128v109h109V380L237,380z"/>
	</g>
	<g>
		<path class="st2" d="M637,54v33h-33V54H637 M641,50h-41v41h41V50L641,50z"/>
	</g>
	<g>
		<path class="st2" d="M600,417v33h-33v-33H600 M604,413h-41v41h41V413L604,413z"/>
	</g>
	<g>
		<g>
			<line class="st3" x1="285" y1="73" x2="575.59" y2="73"/>
			<g>
				<path class="st2" d="M585,73c-4.43,1.64-9.93,4.45-13.33,7.42l2.68-7.42l-2.68-7.42C575.07,68.55,580.57,71.36,585,73z"/>
			</g>
		</g>
	</g>
	<g>
		<g>
			<line class="st3" x1="250" y1="436" x2="540.59" y2="436"/>
			<g>
				<path class="st2" d="M550,436c-4.43,1.64-9.93,4.45-13.33,7.42l2.68-7.42l-2.68-7.42C540.07,431.55,545.57,434.36,550,436z"/>
			</g>
		</g>
	</g>
	<text transform="matrix(1 0 0 1 258.0039 304.8008)" class="st4 st5">Valid padding</text>
	<text transform="matrix(1 0 0 1 254.7891 590.8008)" class="st4 st5">Same padding</text>
</g>
</svg>
